<?xml version="1.0" standalone="no"?>
<!DOCTYPE svg PUBLIC "-//W3C//DTD SVG 20010904//EN"
 "http://www.w3.org/TR/2001/REC-SVG-20010904/DTD/svg10.dtd">
<svg version="1.0" xmlns="http://www.w3.org/2000/svg"
 width="5434.000000pt" height="3508.000000pt" viewBox="0 0 5434.000000 3508.000000"
 preserveAspectRatio="xMidYMid meet">

<g transform="translate(0.000000,3508.000000) scale(0.100000,-0.100000)"
fill="#000000" stroke="none">
<path d="M28120 16005 l0 -635 3935 0 3935 0 0 635 0 635 -3935 0 -3935 0 0
-635z"/>
<path d="M28120 13305 l0 -1515 3905 -1 c2148 -1 3912 -1 3920 -1 48 0 45 -42
45 637 l0 635 -3280 0 -3280 0 0 275 0 275 3280 0 3280 0 0 605 0 605 -3935 0
-3935 0 0 -1515z"/>
<path d="M26150 10360 l0 -150 425 0 425 0 0 -1140 0 -1140 170 0 170 0 0
1140 0 1140 425 0 425 0 0 150 0 150 -1020 0 -1020 0 0 -150z"/>
<path d="M35400 9220 l0 -1290 155 0 155 0 0 1290 0 1290 -155 0 -155 0 0
-1290z"/>
<path d="M37250 9220 l0 -1290 170 0 170 0 2 528 3 527 465 6 c477 5 508 8
654 51 239 70 392 221 472 468 23 72 28 107 32 226 3 121 1 153 -17 225 -68
270 -236 443 -494 508 -138 36 -250 41 -862 41 l-595 0 0 -1290z m1267 981
c165 -24 296 -142 339 -305 8 -28 14 -91 14 -141 0 -253 -122 -398 -380 -452
-73 -15 -141 -18 -490 -18 l-405 0 -3 463 -2 462 432 0 c238 0 461 -4 495 -9z"/>
<path d="M41567 10502 c-8 -11 -8 -307 -1 -325 5 -15 25 -17 160 -17 l154 0 0
175 0 175 -154 0 c-85 0 -157 -3 -159 -8z"/>
<path d="M44583 10357 l-153 -92 0 -232 0 -233 -115 0 -115 0 0 -120 0 -120
115 0 115 0 0 -597 c1 -797 6 -851 104 -949 63 -62 133 -91 255 -103 81 -9
229 0 291 17 l26 7 -21 134 -20 133 -112 2 c-125 1 -153 12 -185 77 -17 31
-18 84 -18 657 l0 622 155 0 155 0 0 120 0 120 -155 0 -155 0 0 325 c0 179 -3
325 -7 325 -5 0 -77 -42 -160 -93z"/>
<path d="M28937 9818 c-76 -26 -146 -92 -222 -207 l-60 -91 -3 140 -3 140
-139 0 -140 0 0 -935 0 -936 158 3 157 3 2 562 c2 526 4 568 23 665 12 57 33
128 46 159 31 69 102 141 169 170 68 30 177 30 260 -1 33 -12 67 -24 76 -27
12 -3 27 25 67 129 29 74 52 139 52 144 0 16 -106 65 -184 86 -89 23 -185 22
-259 -4z"/>
<path d="M30155 9825 c-340 -54 -532 -205 -610 -478 -9 -32 -14 -64 -12 -71 6
-14 265 -53 290 -43 7 3 19 25 26 48 36 120 108 212 199 252 145 65 407 62
555 -6 119 -55 168 -145 170 -312 l2 -100 -80 -23 c-101 -29 -253 -56 -457
-82 -305 -39 -405 -68 -541 -157 -177 -117 -263 -344 -212 -562 21 -88 59
-154 130 -226 126 -129 303 -184 545 -172 219 12 391 79 592 233 33 25 49 32
52 22 2 -7 9 -40 15 -73 6 -33 18 -80 27 -103 l17 -42 163 0 163 0 -20 48
c-12 26 -30 81 -41 122 -20 70 -21 114 -28 670 -5 343 -12 616 -18 645 -41
195 -130 296 -326 370 -137 52 -414 70 -601 40z m622 -1094 c-8 -164 -20 -221
-62 -307 -62 -128 -201 -231 -362 -269 -94 -23 -260 -19 -340 7 -88 29 -172
107 -192 181 -22 77 -10 176 28 235 63 98 130 125 441 178 216 36 382 73 440
97 19 9 39 13 44 10 5 -4 6 -60 3 -132z"/>
<path d="M33981 9825 c-172 -31 -297 -98 -426 -229 -171 -173 -247 -369 -262
-676 -16 -345 75 -622 263 -801 112 -105 211 -159 369 -200 78 -21 112 -24
260 -23 141 1 184 5 250 23 209 56 364 169 466 341 38 65 104 219 96 226 -2 2
-75 14 -162 25 -127 17 -160 19 -163 9 -24 -71 -94 -183 -146 -235 -99 -98
-195 -135 -354 -135 -212 0 -387 110 -481 303 -37 75 -68 190 -72 272 l-4 60
698 3 697 2 0 88 c0 240 -59 459 -168 619 -52 77 -172 189 -252 236 -72 42
-187 81 -282 97 -85 13 -237 11 -327 -5z m342 -265 c127 -39 240 -139 295
-260 26 -59 66 -235 57 -250 -4 -6 -207 -10 -526 -10 l-519 0 0 23 c1 52 32
167 65 233 62 127 158 212 290 259 93 33 241 35 338 5z"/>
<path d="M43080 9825 c-169 -37 -309 -127 -407 -260 l-22 -30 -1 133 0 132
-140 0 -140 0 0 -935 0 -935 154 0 155 0 4 598 c4 655 5 668 66 798 73 155
258 253 456 241 176 -11 297 -99 343 -250 14 -45 16 -143 19 -720 l4 -668 155
3 155 3 -1 692 c0 444 -4 712 -11 749 -43 231 -180 376 -414 440 -84 22 -292
28 -375 9z"/>
<path d="M40136 9800 c-311 -49 -559 -219 -712 -487 -153 -269 -162 -604 -23
-888 162 -333 491 -539 859 -539 279 1 513 103 707 308 222 236 306 561 227
891 -21 88 -90 239 -148 319 -130 181 -342 324 -559 376 -97 23 -268 33 -351
20z m84 -332 l0 -241 -97 6 c-128 8 -273 36 -280 53 -6 16 48 139 94 212 42
67 115 145 161 174 41 25 104 48 114 41 5 -2 8 -113 8 -245z m139 237 c63 -22
126 -69 181 -138 49 -60 121 -192 140 -256 8 -29 7 -31 -28 -41 -65 -18 -248
-41 -298 -38 l-49 3 -3 220 c-2 196 1 265 12 265 2 0 22 -7 45 -15z m-466
-117 c-46 -68 -88 -148 -114 -216 -22 -58 -26 -62 -49 -57 -48 12 -150 66
-150 80 0 24 156 158 242 207 94 55 115 51 71 -14z m780 36 c101 -53 285 -213
271 -236 -7 -12 -143 -78 -160 -78 -6 0 -19 21 -29 48 -27 71 -63 140 -106
204 -22 32 -39 62 -39 68 0 15 27 12 63 -6z m-1050 -354 c47 -22 90 -40 97
-40 8 0 10 -8 6 -22 -12 -47 -27 -146 -34 -228 l-7 -85 -149 -3 -149 -3 6 63
c4 35 13 90 22 123 20 76 94 235 110 235 7 0 51 -18 98 -40z m1428 -40 c41
-82 75 -193 85 -282 l7 -58 -150 0 -150 0 -8 82 c-4 46 -13 119 -21 163 -8 44
-14 83 -14 87 0 3 21 14 48 23 26 9 67 27 92 40 25 13 51 23 59 22 8 -1 32
-36 52 -77z m-986 -75 c38 -3 89 -8 113 -11 l42 -5 0 -125 0 -124 -225 0 -225
0 0 31 c0 46 30 240 40 259 8 15 16 15 97 -1 48 -10 119 -21 158 -24z m669
-51 c8 -43 17 -109 20 -147 l7 -67 -228 2 -228 3 -2 117 c-1 68 3 120 8 124 6
3 58 10 117 15 59 5 145 18 192 28 47 10 89 15 93 11 4 -4 14 -43 21 -86z
m-1042 -394 c6 -78 22 -180 34 -222 4 -14 -15 -27 -92 -63 -53 -25 -102 -45
-109 -45 -15 0 -88 155 -110 233 -9 32 -19 87 -22 123 l-6 65 149 -3 149 -3 7
-85z m528 -34 l0 -125 -42 -5 c-24 -3 -77 -8 -119 -11 -42 -4 -113 -14 -158
-24 -75 -16 -83 -17 -90 -2 -11 20 -28 123 -37 219 l-7 72 227 0 226 0 0 -124z
m531 51 c-5 -107 -33 -232 -51 -230 -8 1 -50 8 -92 17 -43 9 -125 20 -183 26
-59 5 -111 12 -116 16 -10 6 -12 221 -2 237 2 4 104 6 226 5 l222 -3 -4 -68z
m385 14 c-14 -120 -96 -344 -132 -358 -6 -2 -38 9 -70 25 -33 16 -76 35 -97
42 -36 11 -39 14 -33 44 13 74 36 244 36 274 l0 32 151 0 152 0 -7 -59z m-916
-521 l0 -240 -25 0 c-64 0 -177 90 -250 200 -49 74 -108 207 -101 226 4 10 83
27 216 47 14 3 55 5 93 6 l67 1 0 -240z m305 225 c55 -8 114 -20 132 -26 29
-9 31 -12 22 -41 -16 -58 -88 -193 -134 -251 -53 -67 -122 -120 -184 -142 -36
-12 -46 -12 -53 -3 -9 15 -11 439 -2 462 8 21 84 21 219 1z m-740 -141 c16
-43 53 -115 82 -162 29 -46 50 -88 47 -93 -7 -12 -123 50 -184 99 -70 55 -150
135 -150 150 0 13 131 80 160 81 10 1 25 -25 45 -75z m1091 39 c31 -14 58 -32
61 -39 12 -32 -110 -145 -234 -218 -61 -36 -93 -45 -93 -26 0 6 17 36 39 68
43 64 79 133 106 205 21 55 25 56 121 10z"/>
<path d="M31402 9783 c5 -16 241 -645 505 -1343 47 -124 109 -288 138 -365
l53 -140 153 0 154 0 118 310 c64 171 191 506 282 745 149 396 282 747 300
793 7 16 -3 17 -155 15 l-162 -3 -40 -110 c-22 -60 -65 -177 -95 -260 -30 -82
-79 -215 -108 -295 -115 -311 -190 -521 -240 -670 -29 -85 -55 -148 -58 -140
-2 8 -32 98 -65 200 -52 162 -116 343 -222 635 -16 44 -73 206 -128 360 l-100
280 -167 3 c-156 2 -167 1 -163 -15z"/>
<path d="M41560 8865 l0 -935 160 0 160 0 0 935 0 935 -160 0 -160 0 0 -935z"/>
</g>
</svg>
