<?xml version="1.0" standalone="no"?>
<!DOCTYPE svg PUBLIC "-//W3C//DTD SVG 20010904//EN"
 "http://www.w3.org/TR/2001/REC-SVG-20010904/DTD/svg10.dtd">
<svg version="1.0" xmlns="http://www.w3.org/2000/svg"
 width="5434.000000pt" height="3508.000000pt" viewBox="0 0 5434.000000 3508.000000"
 preserveAspectRatio="xMidYMid meet">

<g transform="translate(0.000000,3508.000000) scale(0.100000,-0.100000)"
fill="#000000" stroke="none">
<path d="M20175 29114 c-27 -2 -135 -8 -240 -14 -1658 -92 -3365 -535 -4800
-1245 -2288 -1133 -4164 -3053 -5379 -5505 -1076 -2172 -1523 -4573 -1275
-6850 87 -798 273 -1621 528 -2333 295 -822 740 -1749 1223 -2552 1236 -2050
2827 -3598 4573 -4446 200 -98 457 -210 464 -203 11 11 -32 35 -149 84 -322
135 -705 340 -1055 563 -1097 701 -2133 1781 -2988 3119 -526 823 -1015 1784
-1394 2738 -354 891 -573 1838 -657 2845 -54 637 -54 1352 0 1990 165 1971
777 3921 1765 5631 700 1211 1559 2257 2556 3111 562 482 1209 922 1833 1246
92 48 149 73 140 61 -8 -10 -54 -62 -101 -114 -614 -678 -1228 -1550 -1694
-2405 -1222 -2244 -1753 -4806 -1490 -7194 8 -74 14 -135 13 -136 -9 -6 -537
-153 -698 -195 -312 -79 -767 -179 -1020 -223 -64 -11 248 -5 439 8 396 28
776 75 1154 143 108 20 160 25 162 18 2 -6 9 -49 15 -96 18 -132 77 -446 121
-645 180 -812 442 -1550 884 -2487 85 -180 100 -218 86 -222 -380 -116 -1110
-285 -1601 -371 -84 -14 -82 -15 151 -10 434 10 852 50 1347 130 118 19 217
35 222 35 4 0 49 -77 99 -171 353 -657 856 -1434 1403 -2167 417 -559 597
-770 998 -1173 745 -747 1514 -1316 2350 -1738 217 -110 558 -266 565 -259 11
11 -34 39 -125 77 -608 255 -1270 661 -1835 1124 -406 334 -937 869 -1250
1260 -160 200 -498 693 -736 1072 -375 597 -687 1151 -975 1730 -132 267 -151
311 -136 317 9 3 125 32 257 63 706 168 1407 406 2115 718 214 94 687 329 905
448 180 98 561 326 677 404 l83 55 30 -37 c300 -374 784 -889 1173 -1247 l172
-158 0 -1194 0 -1194 685 0 685 0 0 1870 0 1870 2383 0 c1675 0 2409 -3 2472
-11 347 -43 514 -175 597 -474 l23 -80 3 -1588 2 -1587 688 2 687 3 0 1935 c0
1567 -3 1951 -13 2020 -35 217 -134 426 -285 598 -248 284 -674 476 -1132 512
-71 6 -1438 10 -3350 10 l-3230 0 165 157 c416 395 787 790 1104 1172 89 107
172 207 186 222 l25 28 250 -264 c138 -146 279 -295 314 -332 76 -81 75 -79
-254 322 -130 160 -244 300 -252 312 -13 20 -7 30 110 185 998 1315 1657 2716
1903 4046 21 112 32 152 43 152 8 0 325 -84 705 -186 380 -102 864 -232 1076
-289 212 -57 570 -153 797 -214 226 -61 415 -111 420 -110 4 0 -138 51 -317
113 -890 310 -1676 612 -2403 923 l-249 107 6 60 c15 138 26 371 25 521 l-1
160 -23 -160 c-25 -163 -91 -500 -104 -522 -14 -26 -940 415 -1496 712 -212
113 -472 258 -499 278 -17 13 -17 16 14 77 57 112 159 349 247 570 348 876
533 1788 533 2615 0 147 -13 195 -23 87 -10 -106 -52 -344 -93 -525 -173 -772
-516 -1642 -967 -2457 -44 -80 -81 -146 -82 -148 -2 -2 -77 42 -167 98 -1607
993 -2809 2114 -3623 3380 -47 73 -85 139 -85 146 0 7 12 26 26 43 21 26 53
40 197 87 881 286 1844 480 2777 559 397 33 570 39 1065 39 623 0 1028 -23
1568 -89 1917 -237 3756 -881 5462 -1913 833 -504 1664 -1133 2380 -1800 507
-473 1032 -1038 1468 -1579 81 -101 147 -180 147 -177 0 8 -180 317 -255 439
-1001 1617 -2426 2972 -4175 3967 -222 126 -509 279 -669 355 -64 30 -172 82
-241 115 -539 257 -1283 536 -1910 717 -949 273 -1830 426 -2895 502 -141 10
-1242 21 -1350 13z m-4070 -2569 c266 -1846 952 -3718 1907 -5204 l99 -154
-128 -129 c-390 -393 -1002 -939 -1428 -1274 -217 -171 -578 -434 -595 -434
-19 0 -181 538 -254 840 -165 686 -256 1313 -296 2040 -13 238 -13 929 0 1180
49 937 203 1862 460 2770 69 244 193 637 197 624 1 -5 18 -121 38 -259z m884
-165 c409 -460 914 -952 1391 -1354 530 -446 1083 -848 1625 -1181 88 -54 162
-99 164 -101 6 -5 -193 -308 -332 -507 -338 -484 -715 -959 -1116 -1406 -86
-95 -174 -194 -197 -219 l-41 -46 -55 95 c-398 679 -780 1452 -1050 2124 -387
964 -631 1885 -738 2790 -31 266 -39 258 91 103 61 -73 177 -207 258 -298z
m-1759 -51 c-176 -609 -323 -1369 -394 -2039 -50 -472 -60 -669 -61 -1225 0
-612 15 -878 81 -1405 106 -854 336 -1748 649 -2524 23 -56 26 -70 14 -77 -8
-5 -84 -52 -169 -103 -693 -419 -1508 -809 -2327 -1116 -260 -98 -466 -171
-470 -167 -8 9 -24 351 -29 647 -52 2755 883 5643 2550 7877 99 133 182 241
183 239 1 -1 -11 -49 -27 -107z m5930 -3110 c468 -216 930 -391 1351 -512 85
-25 166 -47 182 -51 16 -4 27 -13 27 -24 0 -27 -161 -499 -233 -682 -412
-1051 -1036 -2102 -1855 -3122 -74 -93 -138 -168 -142 -168 -15 0 -493 633
-788 1044 -333 465 -912 1331 -916 1371 0 7 65 86 145 176 665 747 1131 1393
1606 2226 l24 43 222 -114 c122 -63 292 -147 377 -187z m-2595 -2654 c207
-264 335 -408 770 -866 477 -503 965 -1018 1022 -1079 50 -55 54 -62 41 -78
-458 -549 -1196 -1297 -1803 -1827 -421 -368 -948 -795 -982 -795 -4 0 -20 19
-34 43 -14 23 -69 112 -121 197 -445 728 -877 1597 -1256 2527 l-70 171 169
109 c608 389 1329 974 1948 1579 102 100 189 179 192 176 4 -4 60 -74 124
-157z m-2745 -2157 c331 -715 688 -1358 1104 -1988 136 -205 346 -508 443
-637 l24 -31 -218 -144 c-814 -540 -1683 -983 -2673 -1363 -369 -141 -950
-339 -962 -327 -9 9 -176 397 -264 614 -282 694 -474 1368 -598 2104 -35 207
-96 658 -96 712 0 26 3 28 133 61 1006 258 1990 646 2887 1138 63 35 117 63
120 63 3 0 48 -91 100 -202z m3260 -3173 c0 -641 -4 -1165 -8 -1165 -11 0
-226 228 -398 421 -209 235 -546 663 -737 936 l-36 52 102 72 c295 210 697
528 987 782 41 36 78 66 83 66 4 1 7 -523 7 -1164z"/>
<path d="M31721 22920 c14 -31 19 -36 19 -24 0 6 -7 19 -16 30 -14 18 -14 18
-3 -6z"/>
<path d="M10278 17073 c7 -3 16 -2 19 1 4 3 -2 6 -13 5 -11 0 -14 -3 -6 -6z"/>
<path d="M28160 15935 l0 -665 4113 2 4112 3 3 654 c2 517 0 656 -10 663 -7 4
-1859 8 -4115 8 l-4103 0 0 -665z"/>
<path d="M37240 15930 l0 -670 1720 0 1720 0 0 -1870 0 -1870 685 0 685 0 0
1870 0 1870 1710 0 1710 0 0 670 0 670 -4115 0 -4115 0 0 -670z"/>
<path d="M28160 13115 l0 -1585 4115 0 4115 0 0 665 0 665 -3430 0 -3430 0 0
285 0 285 3428 2 3427 3 0 630 0 630 -4112 3 -4113 2 0 -1585z"/>
<path d="M26100 10040 l0 -160 445 0 445 0 0 -1190 0 -1190 180 0 180 0 0
1190 0 1190 445 0 445 0 0 160 0 160 -1070 0 -1070 0 0 -160z"/>
<path d="M35770 8850 l0 -1350 165 0 165 0 0 1350 0 1350 -165 0 -165 0 0
-1350z"/>
<path d="M37710 8851 l0 -1351 175 0 175 0 0 549 0 549 473 5 c382 4 488 8
557 21 251 48 393 124 504 269 66 87 118 194 147 302 31 115 31 327 0 440 -69
254 -235 430 -476 505 -160 49 -218 52 -907 57 l-648 5 0 -1351z m1315 1019
c239 -34 387 -230 373 -493 -14 -250 -130 -383 -388 -444 -51 -12 -157 -17
-507 -20 l-443 -5 0 486 0 486 448 0 c246 0 479 -5 517 -10z"/>
<path d="M42217 10193 c-4 -3 -7 -89 -7 -190 l0 -183 165 0 165 0 0 190 0 190
-158 0 c-87 0 -162 -3 -165 -7z"/>
<path d="M45368 10034 l-158 -95 0 -245 0 -244 -125 0 -125 0 0 -125 0 -125
125 0 125 0 0 -640 c0 -687 6 -801 45 -886 65 -146 218 -212 455 -200 109 6
184 17 197 30 6 5 -20 207 -33 261 -5 19 -12 20 -112 17 -124 -4 -163 10 -197
68 -19 34 -20 52 -23 693 l-3 657 166 0 165 0 0 125 0 125 -165 0 -165 0 0
340 c0 187 -3 340 -7 339 -5 0 -79 -43 -165 -95z"/>
<path d="M29017 9470 c-104 -41 -150 -88 -284 -296 -9 -15 -12 11 -12 129 l-1
147 -145 0 -145 0 0 -975 0 -975 159 0 159 0 5 593 c5 628 8 664 57 813 39
115 126 206 225 234 72 20 198 9 269 -23 32 -15 61 -25 64 -22 8 8 112 278
112 291 0 14 -139 78 -202 93 -74 17 -205 13 -261 -9z"/>
<path d="M30267 9475 c-341 -59 -531 -214 -617 -503 -12 -41 -20 -75 -18 -77
10 -8 313 -44 318 -38 3 5 14 33 24 63 39 115 106 204 186 245 66 34 180 55
297 55 247 0 407 -76 459 -219 10 -27 18 -91 21 -157 l5 -110 -83 -22 c-126
-33 -208 -48 -379 -72 -393 -53 -485 -74 -609 -140 -127 -68 -232 -193 -273
-325 -30 -98 -30 -244 1 -335 47 -137 143 -246 274 -309 106 -52 204 -71 366
-71 259 0 427 57 646 220 l79 59 17 -82 c9 -45 24 -99 32 -119 l16 -38 170 0
170 0 -19 45 c-65 153 -71 212 -79 905 -7 583 -8 607 -29 671 -28 84 -92 182
-146 221 -60 45 -170 95 -261 119 -67 18 -114 22 -285 25 -141 2 -229 -1 -283
-11z m663 -1270 c-14 -113 -43 -191 -95 -260 -102 -135 -263 -216 -463 -232
-263 -20 -444 105 -444 307 0 116 56 206 160 259 56 28 134 47 347 81 190 30
405 79 467 105 l33 13 3 -96 c2 -53 -2 -133 -8 -177z"/>
<path d="M34290 9479 c-144 -25 -309 -106 -420 -206 -155 -139 -259 -357 -290
-606 -20 -155 -8 -418 23 -538 88 -336 277 -538 594 -636 84 -26 98 -27 298
-27 201 0 214 1 298 27 49 15 112 39 140 53 143 72 283 214 351 357 40 83 69
167 61 175 -9 9 -326 48 -331 41 -2 -4 -25 -49 -50 -99 -84 -168 -213 -266
-384 -290 -223 -32 -430 57 -550 237 -69 104 -104 207 -124 371 l-7 52 732 0
732 0 -6 163 c-4 127 -11 185 -31 267 -49 197 -158 376 -298 489 -72 59 -215
132 -303 156 -72 20 -352 29 -435 14z m329 -270 c120 -26 275 -150 326 -262
25 -54 58 -176 69 -249 l5 -38 -551 0 -550 0 7 43 c18 125 49 211 105 292 129
187 347 267 589 214z"/>
<path d="M43785 9476 c-77 -18 -135 -41 -210 -85 -60 -35 -162 -129 -203 -186
l-21 -30 -1 138 0 137 -150 0 -150 0 0 -975 0 -975 165 0 165 0 0 576 c0 470
3 596 16 681 33 228 117 342 304 417 67 27 86 30 190 30 155 1 219 -22 305
-108 67 -68 88 -115 105 -231 5 -40 10 -344 10 -717 l0 -648 165 0 165 0 0
673 c0 369 -5 715 -10 768 -21 212 -112 368 -268 456 -117 66 -198 85 -367 89
-103 3 -169 -1 -210 -10z"/>
<path d="M40688 9445 c-416 -70 -745 -394 -824 -812 -21 -114 -15 -314 15
-425 102 -387 411 -676 798 -743 500 -87 983 207 1136 690 115 364 13 755
-264 1020 -237 226 -546 323 -861 270z m120 -337 l-3 -253 -80 3 c-130 5 -304
38 -312 58 -8 22 91 215 144 282 78 96 170 161 231 162 l22 0 -2 -252z m180
230 c64 -30 169 -137 221 -226 46 -80 95 -199 83 -205 -24 -15 -293 -55 -379
-57 -10 0 -13 58 -13 255 0 291 -5 276 88 233z m-498 -64 c0 -9 -13 -33 -30
-53 -28 -37 -107 -189 -128 -250 -6 -17 -16 -31 -22 -31 -23 0 -170 73 -170
85 0 30 176 179 283 241 49 28 67 30 67 8z m793 -10 c111 -56 298 -219 281
-245 -8 -13 -146 -79 -166 -79 -7 0 -28 39 -47 87 -19 47 -58 122 -87 166 -46
69 -57 97 -38 97 3 0 28 -12 57 -26z m-1158 -338 c11 -7 49 -26 85 -41 36 -15
69 -30 73 -35 5 -4 2 -50 -7 -101 -8 -52 -18 -129 -22 -171 l-6 -78 -154 0
-154 0 0 34 c0 119 105 406 148 406 10 0 26 -6 37 -14z m1553 -73 c45 -95 77
-204 88 -295 l6 -58 -155 0 -154 0 -7 31 c-3 17 -6 48 -6 69 0 36 -25 196 -36
233 -4 13 1 20 16 24 12 3 56 23 98 44 42 20 84 38 93 38 10 1 30 -29 57 -86z
m-1186 -53 c55 -12 148 -24 206 -28 l107 -7 3 -132 3 -133 -236 0 -235 0 0 48
c0 73 34 272 47 272 3 0 50 -9 105 -20z m852 -67 c8 -49 18 -121 22 -160 l7
-73 -237 0 -236 0 0 130 c0 150 -14 135 135 145 50 3 128 14 175 24 127 27
116 33 134 -66z m-1089 -410 c4 -49 13 -122 21 -163 17 -91 17 -110 3 -110 -7
0 -54 -20 -105 -44 -105 -50 -97 -52 -142 39 -42 84 -81 213 -88 295 l-7 70
155 0 156 0 7 -87z m550 -48 l0 -130 -90 -7 c-49 -4 -143 -17 -208 -29 -65
-11 -121 -18 -124 -15 -11 11 -42 199 -43 259 l0 57 233 -2 232 -3 0 -130z
m557 60 c-3 -70 -27 -233 -36 -243 -3 -2 -56 5 -118 17 -62 11 -157 24 -210
27 l-98 7 0 134 0 133 233 -2 232 -3 -3 -70z m401 17 c-4 -99 -72 -307 -121
-369 l-17 -22 -65 32 c-36 18 -85 40 -109 49 -34 14 -42 21 -37 35 8 19 32
180 42 276 l6 58 151 -3 152 -3 -2 -53z m-575 -328 c58 -11 96 -23 99 -31 17
-43 -108 -265 -194 -348 -45 -43 -151 -105 -180 -105 -10 0 -13 48 -13 253 0
140 2 256 5 258 7 8 187 -9 283 -27z m-380 -226 l-3 -253 -24 3 c-107 12 -258
167 -331 342 -47 110 -47 107 0 120 69 19 212 38 288 39 l72 1 -2 -252z m-454
85 c19 -45 51 -109 72 -143 22 -34 46 -72 54 -85 8 -13 11 -27 7 -32 -21 -21
-245 131 -310 211 -21 24 -37 47 -37 49 0 14 155 89 173 84 4 -1 23 -39 41
-84z m1149 41 c37 -19 67 -38 67 -42 0 -4 -33 -40 -72 -79 -94 -91 -230 -183
-273 -183 -22 0 -20 5 30 80 42 63 82 141 119 233 18 45 21 44 129 -9z"/>
<path d="M31590 9442 c0 -4 14 -43 31 -87 17 -44 109 -289 206 -545 295 -784
400 -1062 428 -1135 15 -38 36 -94 47 -123 l20 -52 160 2 161 3 62 165 c35 91
127 334 205 540 78 206 206 547 286 757 79 210 153 404 164 432 l20 51 -168 0
-169 0 -31 -82 c-96 -256 -432 -1187 -477 -1322 l-52 -159 -47 149 c-26 82
-118 345 -203 584 -195 544 -293 822 -293 826 0 2 -79 4 -175 4 -96 0 -175 -3
-175 -8z"/>
<path d="M42210 8475 l0 -975 165 0 165 0 0 975 0 975 -165 0 -165 0 0 -975z"/>
</g>
</svg>
